<svg width="16" height="16" viewBox="0 0 16 16" fill="none" xmlns="http://www.w3.org/2000/svg">
<path d="M4.24626 4.07934L2.39609 2.92767C2.23646 2.83233 2.21029 2.6175 2.34245 2.48912L3.03724 1.81413C3.1707 1.68447 3.39576 1.71244 3.49127 1.87133L4.64795 3.69799C4.79973 3.94968 4.50271 4.23188 4.24626 4.07934Z" fill="#FFC224"/>
<path d="M2.6307 9.6191L0.482206 9.66104C0.295096 9.66486 0.161633 9.83773 0.208738 10.0132L0.458653 10.936C0.507066 11.114 0.715111 11.1991 0.879977 11.1102L2.77855 10.1454C3.04024 10.0017 2.93164 9.61274 2.6307 9.6191Z" fill="#FFC224"/>
<path d="M7.61965 13.1644L7.14861 15.1969C7.10543 15.3736 7.24282 15.544 7.42993 15.544H8.41258C8.60231 15.544 8.7397 15.3698 8.69259 15.1919L8.18098 13.1593C8.10509 12.8758 7.69031 12.8796 7.61965 13.1644Z" fill="#FFC224"/>
<path d="M11.4547 4.07934L13.3048 2.92767C13.4645 2.83233 13.4906 2.6175 13.3585 2.48912L12.6637 1.81413C12.5302 1.68447 12.3052 1.71244 12.2097 1.87133L11.053 3.69799C10.9012 3.94968 11.1982 4.23188 11.4547 4.07934Z" fill="#FFC224"/>
<path d="M13.073 9.61897L15.2215 9.66092C15.4086 9.66474 15.542 9.83761 15.4949 10.013L15.245 10.9359C15.1966 11.1139 14.9886 11.199 14.8237 11.11L12.9251 10.1452C12.6634 10.0016 12.772 9.61262 13.073 9.61897Z" fill="#FFC224"/>
<path d="M8.38047 0.31922L10.1417 4.22168C10.2764 4.5204 10.5682 4.72506 10.9032 4.7543L15.1936 5.12802C15.6791 5.19666 15.8727 5.77504 15.5207 6.10808L12.2888 8.74574C12.0271 8.95929 11.9081 9.29488 11.98 9.61903L12.9195 13.8914C13.0019 14.3605 12.4956 14.7189 12.0612 14.4965L8.31635 12.366C8.02849 12.202 7.67259 12.202 7.38473 12.366L3.63992 14.4952C3.20682 14.7164 2.69914 14.3592 2.78157 13.8901L3.72105 9.61775C3.7917 9.29361 3.67394 8.95802 3.41225 8.74447L0.179047 6.10935C-0.17162 5.77758 0.0220324 5.19793 0.506162 5.12929L4.7966 4.75557C5.13156 4.72633 5.42335 4.52167 5.55812 4.22295L7.31931 0.320491C7.53782 -0.106618 8.16326 -0.106618 8.38047 0.31922Z" fill="#FFC224"/>
<path d="M8.25174 4.45561L7.95341 1.58024C7.94163 1.42008 7.90761 1.14551 8.17192 1.14551C8.38127 1.14551 8.49511 1.5688 8.49511 1.5688L9.3901 3.87723C9.72768 4.7556 9.58898 5.05687 9.26318 5.23483C8.88896 5.43822 8.33679 5.27932 8.25174 4.45561Z" fill="#FFFF8D"/>
<path d="M11.9442 8.4904L14.5114 6.54425C14.6383 6.44129 14.8673 6.27731 14.6841 6.09045C14.5389 5.94299 14.1463 6.15528 14.1463 6.15528L11.8997 7.00822C11.2298 7.23322 10.7849 7.56626 10.7457 7.98575C10.6946 8.54506 11.2115 8.97598 11.9442 8.4904Z" fill="#FFC224"/>
</svg>
