<svg width="90" height="86" viewBox="0 0 90 86" fill="none" xmlns="http://www.w3.org/2000/svg">
<g filter="url(#filter0_d_570_2967)">
<mask id="path-1-inside-1_570_2967" fill="white">
<path d="M82.8425 37.4016C83.751 36.7248 84.4249 35.7807 84.7697 34.7015C85.1146 33.6224 85.113 32.4624 84.7653 31.3842C84.4175 30.306 83.7411 29.3636 82.8308 28.6893C81.9204 28.0149 80.8219 27.6423 79.6892 27.6238L57.6892 26.7927C57.581 26.7853 57.4773 26.7467 57.3906 26.6816C57.3038 26.6166 57.2377 26.5278 57.2003 26.4261L49.5981 5.89274C49.2161 4.84808 48.5223 3.94603 47.6107 3.30871C46.6991 2.67139 45.6137 2.32959 44.5014 2.32959C43.3891 2.32959 42.3036 2.67139 41.392 3.30871C40.4804 3.94603 39.7867 4.84808 39.4047 5.89274L31.8269 26.4994C31.7895 26.6012 31.7234 26.6899 31.6367 26.755C31.5499 26.82 31.4462 26.8586 31.3381 26.8661L9.33805 27.6972C8.20531 27.7157 7.10676 28.0882 6.19643 28.7626C5.28611 29.4369 4.60966 30.3793 4.26194 31.4575C3.91422 32.5357 3.91266 33.6957 4.25748 34.7749C4.6023 35.854 5.27621 36.7982 6.18472 37.475L23.4425 51.0416C23.5289 51.1096 23.5934 51.2014 23.6282 51.3057C23.6629 51.4099 23.6664 51.5221 23.6381 51.6283L17.6981 72.675C17.3902 73.7467 17.4201 74.8873 17.7835 75.9415C18.1468 76.9957 18.8262 77.9123 19.729 78.5667C20.6319 79.2212 21.7144 79.5816 22.8293 79.599C23.9443 79.6163 25.0375 79.2898 25.9603 78.6638L44.1958 66.4416C44.2857 66.3796 44.3922 66.3464 44.5014 66.3464C44.6105 66.3464 44.7171 66.3796 44.8069 66.4416L63.0425 78.6638C63.9528 79.3112 65.0421 79.6591 66.1592 79.6591C67.2762 79.6591 68.3655 79.3112 69.2758 78.6638C70.1789 78.0156 70.8589 77.1034 71.2222 76.0528C71.5855 75.0022 71.6144 73.8648 71.3047 72.7972L65.3158 51.6772C65.2841 51.5712 65.2859 51.4579 65.3209 51.3529C65.3558 51.2479 65.4224 51.1563 65.5114 51.0905L82.8425 37.4016Z"/>
</mask>
<path d="M82.8425 37.4016C83.751 36.7248 84.4249 35.7807 84.7697 34.7015C85.1146 33.6224 85.113 32.4624 84.7653 31.3842C84.4175 30.306 83.7411 29.3636 82.8308 28.6893C81.9204 28.0149 80.8219 27.6423 79.6892 27.6238L57.6892 26.7927C57.581 26.7853 57.4773 26.7467 57.3906 26.6816C57.3038 26.6166 57.2377 26.5278 57.2003 26.4261L49.5981 5.89274C49.2161 4.84808 48.5223 3.94603 47.6107 3.30871C46.6991 2.67139 45.6137 2.32959 44.5014 2.32959C43.3891 2.32959 42.3036 2.67139 41.392 3.30871C40.4804 3.94603 39.7867 4.84808 39.4047 5.89274L31.8269 26.4994C31.7895 26.6012 31.7234 26.6899 31.6367 26.755C31.5499 26.82 31.4462 26.8586 31.3381 26.8661L9.33805 27.6972C8.20531 27.7157 7.10676 28.0882 6.19643 28.7626C5.28611 29.4369 4.60966 30.3793 4.26194 31.4575C3.91422 32.5357 3.91266 33.6957 4.25748 34.7749C4.6023 35.854 5.27621 36.7982 6.18472 37.475L23.4425 51.0416C23.5289 51.1096 23.5934 51.2014 23.6282 51.3057C23.6629 51.4099 23.6664 51.5221 23.6381 51.6283L17.6981 72.675C17.3902 73.7467 17.4201 74.8873 17.7835 75.9415C18.1468 76.9957 18.8262 77.9123 19.729 78.5667C20.6319 79.2212 21.7144 79.5816 22.8293 79.599C23.9443 79.6163 25.0375 79.2898 25.9603 78.6638L44.1958 66.4416C44.2857 66.3796 44.3922 66.3464 44.5014 66.3464C44.6105 66.3464 44.7171 66.3796 44.8069 66.4416L63.0425 78.6638C63.9528 79.3112 65.0421 79.6591 66.1592 79.6591C67.2762 79.6591 68.3655 79.3112 69.2758 78.6638C70.1789 78.0156 70.8589 77.1034 71.2222 76.0528C71.5855 75.0022 71.6144 73.8648 71.3047 72.7972L65.3158 51.6772C65.2841 51.5712 65.2859 51.4579 65.3209 51.3529C65.3558 51.2479 65.4224 51.1563 65.5114 51.0905L82.8425 37.4016Z" fill="currentcolor"/>
<path d="M82.8425 37.4016L81.6477 35.7978L81.625 35.8146L81.6029 35.8321L82.8425 37.4016ZM79.6892 27.6238L79.6137 29.6224L79.6351 29.6232L79.6565 29.6236L79.6892 27.6238ZM57.6892 26.7927L57.5514 28.788L57.5825 28.7901L57.6137 28.7913L57.6892 26.7927ZM57.2003 26.4261L59.0772 25.7352L59.0759 25.7317L57.2003 26.4261ZM49.5981 5.89274L47.7197 6.57954L47.7225 6.58715L49.5981 5.89274ZM44.5014 2.32959V0.32959V2.32959ZM39.4047 5.89274L41.2818 6.58302L41.2831 6.57954L39.4047 5.89274ZM31.8269 26.4994L33.7038 27.1903L33.704 27.1897L31.8269 26.4994ZM31.3381 26.8661L31.4136 28.8646L31.4447 28.8635L31.4758 28.8613L31.3381 26.8661ZM9.33805 27.6972L9.37071 29.6969L9.39214 29.6966L9.41355 29.6958L9.33805 27.6972ZM6.18472 37.475L7.42075 35.9026L7.40035 35.8866L7.37954 35.8711L6.18472 37.475ZM23.4425 51.0416L24.6793 49.4699L24.6785 49.4693L23.4425 51.0416ZM23.6381 51.6283L25.5629 52.1715L25.5668 52.1576L25.5705 52.1436L23.6381 51.6283ZM17.6981 72.675L19.6204 73.2271L19.6229 73.2182L17.6981 72.675ZM25.9603 78.6638L24.8467 77.0025L24.8375 77.0087L25.9603 78.6638ZM44.1958 66.4416L45.3093 68.103L45.3208 68.0953L45.3322 68.0874L44.1958 66.4416ZM44.8069 66.4416L43.6706 68.0874L43.682 68.0953L43.6934 68.103L44.8069 66.4416ZM63.0425 78.6638L64.2016 77.034L64.179 77.0179L64.156 77.0025L63.0425 78.6638ZM66.1592 79.6591V81.6591V79.6591ZM69.2758 78.6638L70.4349 80.2937L70.4421 80.2886L69.2758 78.6638ZM71.3047 72.7972L69.3806 73.3428L69.3839 73.3543L71.3047 72.7972ZM65.3158 51.6772L67.24 51.1316L67.236 51.1176L67.2319 51.1037L65.3158 51.6772ZM65.5114 51.0905L66.7001 52.6989L66.7259 52.6798L66.751 52.66L65.5114 51.0905ZM84.0373 39.0055C85.2807 38.0793 86.2029 36.7871 86.6748 35.3103L82.8646 34.0928C82.6469 34.7742 82.2213 35.3704 81.6477 35.7978L84.0373 39.0055ZM86.6748 35.3103C87.1467 33.8334 87.1446 32.2459 86.6687 30.7703L82.8618 31.998C83.0814 32.6789 83.0824 33.4113 82.8646 34.0928L86.6748 35.3103ZM86.6687 30.7703C86.1929 29.2947 85.2671 28.0051 84.0213 27.0822L81.6403 30.2963C82.2151 30.7222 82.6422 31.3172 82.8618 31.998L86.6687 30.7703ZM84.0213 27.0822C82.7755 26.1593 81.272 25.6494 79.7218 25.6241L79.6565 29.6236C80.3718 29.6353 81.0654 29.8705 81.6403 30.2963L84.0213 27.0822ZM79.7647 25.6253L57.7647 24.7942L57.6137 28.7913L79.6137 29.6224L79.7647 25.6253ZM57.8269 24.7975C58.1035 24.8166 58.3687 24.9153 58.5906 25.0816L56.1906 28.2816C56.5859 28.5781 57.0585 28.754 57.5514 28.788L57.8269 24.7975ZM58.5906 25.0816C58.8124 25.248 58.9814 25.475 59.0772 25.7352L55.3234 27.117C55.4941 27.5807 55.7952 27.9852 56.1906 28.2816L58.5906 25.0816ZM59.0759 25.7317L51.4736 5.19833L47.7225 6.58715L55.3247 27.1205L59.0759 25.7317ZM51.4764 5.20594C50.9537 3.77627 50.0043 2.54176 48.7567 1.66956L46.4648 4.94785C47.0404 5.35029 47.4785 5.91989 47.7197 6.57954L51.4764 5.20594ZM48.7567 1.66956C47.5091 0.797358 46.0236 0.32959 44.5014 0.32959V4.32959C45.2037 4.32959 45.8891 4.54542 46.4648 4.94785L48.7567 1.66956ZM44.5014 0.32959C42.9792 0.32959 41.4937 0.797356 40.2461 1.66956L42.538 4.94785C43.1136 4.54542 43.799 4.32959 44.5014 4.32959V0.32959ZM40.2461 1.66956C38.9985 2.54176 38.0491 3.77627 37.5263 5.20594L41.2831 6.57954C41.5243 5.91989 41.9624 5.35029 42.538 4.94785L40.2461 1.66956ZM37.5276 5.20246L29.9498 25.8091L33.704 27.1897L41.2818 6.58301L37.5276 5.20246ZM29.9501 25.8085C30.0459 25.5483 30.2148 25.3213 30.4367 25.155L32.8367 28.355C33.232 28.0585 33.5331 27.654 33.7038 27.1903L29.9501 25.8085ZM30.4367 25.155C30.6585 24.9886 30.9237 24.8899 31.2003 24.8708L31.4758 28.8613C31.9688 28.8273 32.4414 28.6514 32.8367 28.355L30.4367 25.155ZM31.2626 24.8675L9.26255 25.6986L9.41355 29.6958L31.4136 28.8646L31.2626 24.8675ZM9.30539 25.6975C7.75518 25.7228 6.25176 26.2326 5.00593 27.1555L7.38694 30.3697C7.96176 29.9438 8.65544 29.7086 9.37071 29.6969L9.30539 25.6975ZM5.00593 27.1555C3.7601 28.0784 2.83435 29.3681 2.35848 30.8436L6.1654 32.0714C6.38497 31.3905 6.81211 30.7955 7.38694 30.3697L5.00593 27.1555ZM2.35848 30.8436C1.8826 32.3192 1.88047 33.9067 2.35237 35.3836L6.16258 34.1661C5.94485 33.4847 5.94583 32.7522 6.1654 32.0714L2.35848 30.8436ZM2.35237 35.3836C2.82428 36.8605 3.74656 38.1526 4.98989 39.0788L7.37954 35.8711C6.80586 35.4437 6.38032 34.8475 6.16258 34.1661L2.35237 35.3836ZM4.94868 39.0473L22.2065 52.614L24.6785 49.4693L7.42075 35.9026L4.94868 39.0473ZM22.2057 52.6133C21.9848 52.4395 21.8197 52.2048 21.7308 51.9381L25.5255 50.6732C25.3672 50.198 25.073 49.7797 24.6793 49.4699L22.2057 52.6133ZM21.7308 51.9381C21.6419 51.6715 21.6332 51.3846 21.7056 51.113L25.5705 52.1436C25.6996 51.6596 25.6839 51.1484 25.5255 50.6732L21.7308 51.9381ZM21.7132 51.0851L15.7732 72.1317L19.6229 73.2182L25.5629 52.1715L21.7132 51.0851ZM15.7758 72.1229C15.3545 73.5896 15.3953 75.1505 15.8926 76.5932L19.6743 75.2897C19.4448 74.624 19.426 73.9038 19.6203 73.227L15.7758 72.1229ZM15.8926 76.5932C16.39 78.036 17.3197 79.2905 18.5552 80.1861L20.9028 76.9474C20.3327 76.5342 19.9037 75.9554 19.6743 75.2897L15.8926 76.5932ZM18.5552 80.1861C19.7908 81.0817 21.2723 81.575 22.7982 81.5987L22.8605 77.5992C22.1565 77.5882 21.4729 77.3607 20.9028 76.9474L18.5552 80.1861ZM22.7982 81.5987C24.324 81.6225 25.8201 81.1756 27.083 80.319L24.8375 77.0087C24.2548 77.404 23.5645 77.6102 22.8605 77.5992L22.7982 81.5987ZM27.0738 80.3252L45.3093 68.103L43.0823 64.7803L24.8468 77.0025L27.0738 80.3252ZM45.3322 68.0874C45.088 68.2561 44.7982 68.3464 44.5014 68.3464V64.3464C43.9863 64.3464 43.4834 64.5031 43.0595 64.7958L45.3322 68.0874ZM44.5014 68.3464C44.2046 68.3464 43.9148 68.2561 43.6706 68.0874L45.9433 64.7958C45.5194 64.5031 45.0165 64.3464 44.5014 64.3464V68.3464ZM43.6934 68.103L61.929 80.3252L64.156 77.0025L45.9205 64.7803L43.6934 68.103ZM61.8834 80.2937C63.1323 81.1819 64.6267 81.6591 66.1592 81.6591V77.6591C65.4576 77.6591 64.7734 77.4406 64.2016 77.034L61.8834 80.2937ZM66.1592 81.6591C67.6916 81.6591 69.1861 81.1819 70.4349 80.2937L68.1167 77.034C67.545 77.4406 66.8608 77.6591 66.1592 77.6591V81.6591ZM70.4421 80.2886C71.6811 79.3992 72.6139 78.1478 73.1124 76.7065L69.332 75.3991C69.1038 76.059 68.6768 76.632 68.1095 77.0391L70.4421 80.2886ZM73.1124 76.7065C73.6108 75.2652 73.6504 73.7048 73.2256 72.2401L69.3839 73.3543C69.5784 74.0249 69.5603 74.7392 69.332 75.3991L73.1124 76.7065ZM73.2289 72.2516L67.24 51.1316L63.3917 52.2228L69.3806 73.3428L73.2289 72.2516ZM67.2319 51.1037C67.3181 51.392 67.3134 51.6999 67.2182 51.9854L63.4235 50.7205C63.2583 51.2159 63.2501 51.7503 63.3998 52.2506L67.2319 51.1037ZM67.2182 51.9854C67.1231 52.2709 66.9421 52.52 66.7001 52.6989L64.3226 49.4821C63.9026 49.7926 63.5886 50.225 63.4235 50.7205L67.2182 51.9854ZM66.751 52.66L84.0821 38.9711L81.6029 35.8321L64.2717 49.521L66.751 52.66Z" fill="#C4BEBD" fill-opacity="0.4" mask="url(#path-1-inside-1_570_2967)"/>
</g>
<defs>
<filter id="filter0_d_570_2967" x="0" y="0.32959" width="89.0273" height="85.3295" filterUnits="userSpaceOnUse" color-interpolation-filters="sRGB">
<feFlood flood-opacity="0" result="BackgroundImageFix"/>
<feColorMatrix in="SourceAlpha" type="matrix" values="0 0 0 0 0 0 0 0 0 0 0 0 0 0 0 0 0 0 127 0" result="hardAlpha"/>
<feOffset dy="2"/>
<feGaussianBlur stdDeviation="2"/>
<feComposite in2="hardAlpha" operator="out"/>
<feColorMatrix type="matrix" values="0 0 0 0 0 0 0 0 0 0 0 0 0 0 0 0 0 0 0.24 0"/>
<feBlend mode="normal" in2="BackgroundImageFix" result="effect1_dropShadow_570_2967"/>
<feBlend mode="normal" in="SourceGraphic" in2="effect1_dropShadow_570_2967" result="shape"/>
</filter>
</defs>
</svg>
